<svg xmlns="http://www.w3.org/2000/svg" viewBox="0 220 2048 815" fill="#f5f3fa">
<path fill="#a78bfa" transform="translate(1022,758)" d="m0 0h42l65 2 67 4 70 6 73 9 47 7 50 9 62 13 69 17 51 15 44 14 36 13 28 11 34 14 24 11 25 12 16 8 27 14 23 13-3 1-19-7-54-17-53-16-63-17-61-15-70-15-50-10-60-10-9-1 27 18 16 12 10 8 12 11 15 14 8 7 5 5-4-1-20-15-15-9-26-14h-10l-16 5-17 9-21 14-12 10-7 2-12 8-17 12-11 9-9 3h-22l-21-4-26-10-13-2-29-5h-11l-11 3-14 7-14 8-16 4h-18l-4-2-2-4 1-9 6-8 7-4 13-4v-8l14-7 15-5 14-3 3-8 2-5v-6l-4-4-15-4-3-5 5-5 17-11 16-9 12-5 11-1 15 3 24 7 6 1h9l11-4 12-11 2-2-82-9-65-5-34-2h-20l-28 10-26 13-5 2-10 1-7-2-6-7-7-16-4-2h-55l-57 3-25 6-19 7-3 2 1 4 9 7 16 8 7 2 7-1 8-6 12-10 7-3 13-1 11 3 28 13 10 7 6 10v8l-3 3-15-1h-13l-10 2-16 9-20 8-16 9-19 13-9 9-8 10-3 3-4-1-7-7-7-4-12-2h-10l-26 7-9 6-6 7-5 7-2 1h-32l-8-5-10-9-10-11 1 6 5 11-1 3-10-9-11-11-8-7-6-8-2-8 3-11 8-15 2-6v-6l-2-3-11-3h-24l-15 3-24 10-29 14-19 11-33 22-18 13-16 13-10 9-2-1 14-14 7-8 23-23 11-9 12-10 19-14 16-11 32-20-44 7-60 11-50 10-52 12-64 16-46 12-57 17-53 17-15 5-3-1 27-14 22-12 31-15 33-15 33-14 37-14 40-14 38-12 53-15 48-12 49-11 65-12 44-7 60-8 56-6 64-5 55-3 26-1z"/>
<path transform="translate(398,430)" d="m0 0h154l19 1 23 4 24 8 19 10 12 9 14 14 10 14 8 17 5 18 2 13v25l-3 17-6 18-8 15-10 13-11 11-11 8-17 10h-2l26 36 16 24 16 23 8 12 10 13v1h-88l-15-22-14-20-11-17-14-20-10-14-67-1v94l-1 1h-78zm79 66v110h68l15-1 12-3 12-6 10-8 8-11 4-9 2-9v-18l-3-12-6-11-6-7-13-9-11-4-11-2z"/>
<path transform="translate(1295,431)" d="m0 0h174l19 3 20 6 18 8 15 10 12 11 9 10 9 14 8 18 4 15 2 17v16l-3 19-5 16-8 17-9 12-9 10-12 10-18 11-3 2 13 18 15 22 11 16 28 40 8 11v1h-88l-44-65-14-20-6-8-67-1v92l-64-9-14-2-1-1zm80 64-1 1v26l1 84h63l17-1 14-3 14-7 9-8 7-10 5-11 1-5v-22l-4-13-6-10-7-7-14-8-13-4-19-2z"/>
<path transform="translate(1749,431)" d="m0 0h82l7 16 15 33 13 28 17 37 15 33 16 35 17 37 15 33 16 34 14 30 8 17h-85l-3-4-13-30-14-33-11-1h-146l-4 8-25 60h-83l9-19 26-58 15-33 18-40 14-32 12-26 15-34 18-41 15-33zm40 79-9 21-13 30-11 27-12 28-6 16v2h104l-1-6-12-29-15-34-18-42-5-12z"/>
<path transform="translate(195,425)" d="m0 0h43l21 3 19 5 16 6 19 10 17 12 13 12 10 10-1 4-17 16-12 11-13 12-7 6-4-2-13-13-13-9-16-8-14-4-10-2-20-1-19 2-15 4-12 5-14 9-12 11-7 8-8 13-5 11-4 12-3 18v23l3 17 7 19 9 15 9 10 5 5 8 7 14 8 12 5 16 4 7 1h25l20-4 13-5 15-8 13-11 7-7 4-5 4 2 11 10 8 7 10 9 8 7 12 10-1 4-23 23-15 11-14 8-17 8-19 6-22 4-8 1h-39l-23-3-23-6-20-8-17-9-16-11-13-11-10-10-11-14-8-13-10-19-7-21-4-19-2-23 1-26 4-23 6-20 11-23 10-15 9-11 11-12 14-12 15-10 23-12 17-6 20-5z"/>
<path transform="translate(1038,425)" d="m0 0h42l24 3 17 4 22 8 21 11 8 5-6 8-9 9-7 8-15 16-12 13-6-2-16-8-16-5-14-2h-22l-17 3-15 5-15 8-15 12-11 14-8 14-5 13-4 20v26l5 23 3 7v3l-22 13-23 12-24 9h-2l-7-15-7-21-3-15-1-9v-30l3-22 5-20 6-16 8-16 9-14 8-10 9-10 10-10 17-13 19-11 25-10 25-6z"/>
<path transform="translate(1206,492)" d="m0 0 4 2 12 19 8 16 7 21 5 24 1 8v28l-4 27-5 18-9 21-9 16-9 12-9 10-10 10-11 9-8 6h-19l-52-2-39-1h-46l-53 2h-8l-13-10-12-11-2-3 8-4 23-10 25-13 13-8 5 2 10 7 16 7 15 4 15 2 21-1 17-4 13-5 11-6 12-9 10-10 9-13 8-17 4-16 2-17-1-20-3-16-5-15 1-4 12-12 5-6h2l2-4 19-19 11-14z"/>
<path transform="translate(741,430)" d="m0 0h68l11 1v315l-70 9-9 1-1-2z"/>
<path transform="translate(1279,226)" d="m0 0h9l12 2 12 6 8 9 4 12 1 13-3 20-6 21-9 20-14 26-13 21-14 21-13 18-14 18-10 13-14 17-11 12-7 8-11 12-9 10-7 8-11 12-15 16-23 23-8 7-16 15-11 9-11 10-11 9-13 11-14 11-13 10-16 12-23 16-21 13-24 13-20 9-21 7-17 3h-15l-10-3-9-6-6-8-3-8-1-6v-10l4-18 8-22 8-18 3-4h2l-3 10-6 21-1 5v23l5 10 8 5 8 2h8l20-4 19-7 25-12 14-8 26-17 12-8 16-12 14-11 22-18 13-11 10-9 8-7 14-12 23-23 8-7 12-13 11-11 7-8 11-12 7-8 10-11 9-11 12-14 8-10 11-14 12-16 14-20 12-20 12-22 7-15 6-18 3-13v-19l-4-10-4-5-8-4-4-1h-23l-20 4-21 7-30 14-24 13-20 12-42 28-19 14-28 22-16 13-14 12-8 8-8 7-16 15-5 2 6-7 25-25 8-7 7-7 8-7 14-12 13-11 14-11 16-13 36-26 15-10 28-17 22-12 16-8 17-8 25-9 16-4z"/>
</svg>
