<svg xmlns="http://www.w3.org/2000/svg" version="1.0" viewBox="341.04 616.15 1593.96 405.68" fill="white"><path d="M520 617.6c-26.8 3.4-54.7 12.6-76.3 25-7.9 4.5-22.7 14.1-23.7 15.3-.3.4-4.2 3.7-8.7 7.4-28.3 23.4-53.6 62.4-62.3 96.2-.5 1.6-1.5 5.5-2.3 8.5-1.8 7-3.4 14.8-4.7 23.1-1.3 8.6-1.3 44.3.1 52.8 3.6 22.3 8.7 40.7 15.3 54.7 6.3 13.2 6.7 13.2 8.6-1 1.3-9.6 3.4-18.4 6.2-25.5 1.7-4.3 1.9-5.9 1.1-8.5-5.9-17.2-8-51.1-4.7-73.5 7.1-48 34.3-90.5 75.7-118.5 17.1-11.6 34.8-19.6 54.1-24.6 35-9 73.4-7.7 106.1 3.7 5.5 1.9 10.7 3.5 11.6 3.6.9.1 3.1-1.8 5-4.3 1.9-2.4 6.1-6.4 9.2-8.8 4.6-3.5 5.5-4.7 4.7-5.8-1.9-2.2-30.6-13-42-15.8-22-5.4-50.3-6.9-73-4z"/><path d="M654.9 642.5c-14.9 4.1-29.1 17.4-32.8 30.8-1.1 3.8-1.8 4.6-4.9 5.5-58.8 17.5-106.2 43.6-157.7 86.6-31.8 26.5-60.1 61.2-73.3 89.8-3.4 7.3-9.3 24.6-11.2 32.7-1.7 7.2-1.8 32.2-.1 38.6 6.4 24.7 22.6 42.1 46.6 50 6.9 2.3 20.7 4.5 28.5 4.5 17 0 42.3-6.6 61.5-15.9 56.2-27.4 115.3-79.3 148.8-130.7 18.2-27.9 31.7-59.7 31.7-74.6 0-5-2.3-7.8-6.5-7.8-4.5 0-6.6 3-15 21.5-6.2 13.6-25.3 44-38.9 62-29.8 39.4-76.7 79.3-119.1 101.5-44.3 23.3-81.9 25.4-102.5 5.8-6.1-5.7-8.3-9.1-11-16.4-2-5.6-2.2-7.6-1.8-20.5.4-12 .9-15.9 3.2-23.4 5.4-17.8 20.8-44.7 38.3-66.5 29.4-36.8 93-81.9 151.3-107.4 3.6-1.6 8.3-3.6 10.5-4.6 5-2.2 18.3-7 19.4-7 .5 0 1.9 2.6 3.2 5.7 4.6 11.8 12.7 20.4 23.7 25.6 5.8 2.7 8 3.2 16.7 3.5 8.3.3 11.1 0 16.3-1.7 12.6-4.3 21-11.8 27-24 3.6-7.4 3.7-7.8 3.7-19.1-.1-11.1-.2-11.7-3.7-19.3-9.4-19.9-31.8-30.8-51.9-25.2zM971 853.5V1003l3.3.1c2.6 0 20 0 46-.1h3.7v-11.8c0-6.4.4-12.3.9-13.1 1.2-1.9 4.5-.6 6.2 2.5.7 1.5 4.4 5.5 8.2 8.9 12.6 11.8 29 17.6 49.7 17.7 21 .2 38.3-5.5 53-17.4 26.4-21.4 39.3-65.6 33.5-114.8-1.9-16.2-2.8-20.4-6.8-32.1-4.5-13.1-10.8-23.7-19.5-33-15.4-16.4-34.1-23.9-59.5-23.9-10.1 0-13.4.4-24.7 3.2-10.4 2.7-24.5 11.8-31.5 20.5-4.9 6-5.5 6.4-7.7 5.2-1.7-.9-1.8-4-1.8-55.9v-55h-53v149.5zm112.3-21.1c9.5 1.8 16.7 5.5 22.6 11.4 5.1 5.1 10.2 14.9 11.9 22.7.6 2.7 1.6 7.1 2.2 9.7 1.5 7 1.2 34-.4 42.9-2.8 14.4-6.1 21.9-13.1 29.7-9.9 11-28.8 15.9-45.5 11.8-7.5-1.9-8.7-2.4-15.1-6.7-9.2-6.2-16-17.1-19.6-31.4-2.5-10.4-2.5-41.1.1-51.5 2.9-11.8 7.1-19.7 14-26.5 6.9-6.8 12.7-10 21.8-12 8.3-1.8 12.1-1.8 21.1-.1z"/><path d="M714.1 714.6c-1.4 2.5-4.8 7.2-7.8 10.5L701 731l2.1 5.3c1.2 2.8 2.5 6.3 3.1 7.7.5 1.4 1.5 3.8 2.3 5.5 8.4 19.2 12.4 37.7 13.2 61 .9 27.1-3.2 52.4-11.8 71.2-1 2.4-1.9 4.5-1.9 4.7 0 1.8-7.5 15.7-12.8 24.1-18 27.9-44.3 51.6-73.4 66-41.5 20.5-87 23.8-131.9 9.5-5.2-1.7-6.7-1.8-11.7-.7-3.2.6-14.1 1.2-25 1.2-10.5 0-19.2.3-19.2.6 0 1 15 10.5 22.7 14.3 26.7 13.3 50.5 19.2 81.3 20.3 24.4.8 45.7-2.2 68.5-9.9 54.4-18.1 100.1-58.9 124.9-111.3 6-12.6 12-33 15.1-51 2.5-14.1 2.5-47 .1-62-3.5-22-10.8-45.2-19.4-61.5-7.2-13.7-8.6-16-9.6-16-.6 0-2.2 2.1-3.5 4.6zM1519 718.5c-41 7.6-66.1 29.1-72.9 62.3-1.4 6.8-1.4 25.1 0 32.8 4.3 23.8 18.1 41.5 41.4 53.3 10.7 5.3 23.1 9.4 40.5 13.2 2.5.6 6.1 1.4 8 1.9 1.9.5 5.5 1.3 8 1.9 37.7 8.4 47.4 14.7 51 33.3 2 10.3-1.2 21.8-8.3 29.5-8.2 9-17.5 11.8-38.2 11.8-15.1-.1-18.7-.6-31-4.7-15.3-5.2-30.9-16.6-41.5-30.4-5.6-7.1-8.1-7.3-13.2-.7-2 2.7-4.5 5.7-5.5 6.8-1.7 1.8-18.6 22.6-20.4 25-2 2.8 14.6 21.1 26.8 29.6 29.4 20.3 77.1 28.5 118.6 20.3 29.2-5.8 50.5-21 61.6-43.9 3.6-7.5 4.4-10 7-21.7 2-8.5 1.4-31.8-1-41.6-6.4-26.1-22.1-42.6-51.5-54.1-7.3-2.8-21.6-6.5-39.4-10.2-8.5-1.7-17.3-3.5-19.5-4-25.9-5.4-36.7-13.1-39.4-28.2-3-16.8 6-29 25.6-34.4 7.5-2 33.4-2.3 41.3-.3 16.1 3.8 25.5 8.5 37.6 18.7 6.7 5.6 8.9 5.6 13.3-.5 9.3-12.7 11.2-15.3 16.9-23.1 3.4-4.6 6.2-9 6.2-9.7 0-1.6-9.8-10.5-16.9-15.3-13.3-9-26.4-13.9-47.6-17.6-9.9-1.8-48-1.8-57.5 0zM1799 717.9c-1.9.5-6.6 1.4-10.5 2.1-9.6 1.8-24.6 7.1-34.1 12.1-20.2 10.6-36.7 27.8-47.3 49.4-12.6 25.5-16.4 44.4-16.4 81 0 33 3.4 54.5 12.2 77 2.1 5.3 9.8 19.6 13.4 25 8.3 12.2 24.7 26.2 38.2 32.4 28.3 13.2 67.8 14 91.5 2.1 11.1-5.6 23.8-18.4 28.7-28.8 1.9-4.2 3.1-5.2 5-4.5 1 .4 1.3 4.4 1.3 18.3 0 11.6.4 18.1 1.1 18.5 1.3.9 50.6.8 51.9 0 .6-.4 1-28.8 1-76.9 0-63.2-.2-76.5-1.4-77.5-.9-.8-17.8-1-61.2-.9l-59.9.3v45l33.4.3 33.4.2-.6 13.8c-.8 20.1-5.5 32.1-15.8 40.4-8.2 6.6-14.4 9.1-28.4 11.3-11.3 1.8-17.8 1.8-28.5.1-16-2.7-25.7-7.5-35.9-17.8-14-14.2-20.7-36-21.8-71.3-1.6-51.6 9.7-81.1 36.8-96.3 16.4-9.1 46-11.1 67.4-4.4 12.9 4 25.7 14.9 32 27.2 2 3.9 3.2 5 5.8 5 2.2 0 40.7-23 41.4-24.8 1.4-3.4-9.8-21-18.9-29.8-15.7-15-34.1-23.4-61.8-28-9.1-1.5-45.7-1.8-52-.5zM1218 862c0 93.3.3 141 1 141h189.5v-46.5l-67.2-.3-67.3-.2v-77h115v-46h-115v-66h132v-46h-188v141zM899.5 788.7c-4.9 1-12.4 3.6-16.5 5.6-6.4 3.1-16.1 13.4-20.1 21.2-2.7 5.1-3.8 6.5-5.4 6.3-1.9-.3-2-1.2-2.3-16.1l-.3-15.7-25.7.2-25.7.3-.3 106.2c-.2 84.7 0 106.3 1 106.3.7.1 12.7.2 26.6.3 24.6.2 25.3.1 25.7-1.8.3-1.1.6-28.6.8-61 .3-57.2.4-59.3 2.5-67.4 5.3-20.2 15.6-31.2 32.3-34.7 8.7-1.9 21-1.4 27.9 1.1 5.4 1.9 8.8 1.3 9.4-1.8.2-1.2.9-4.7 1.5-7.7 5.8-29.1 6.8-34.6 6.4-35.6-.5-1.4-6.8-3.9-13.3-5.3-4.4-1-20.5-1.3-24.5-.4z"/></svg>